<?xml version="1.0" encoding="utf-8"?>
<!-- Generator: Adobe Illustrator 17.0.0, SVG Export Plug-In . SVG Version: 6.00 Build 0)  -->
<!DOCTYPE svg PUBLIC "-//W3C//DTD SVG 1.1//EN" "http://www.w3.org/Graphics/SVG/1.1/DTD/svg11.dtd">
<svg version="1.1" id="Layer_1" xmlns="http://www.w3.org/2000/svg" xmlns:xlink="http://www.w3.org/1999/xlink" x="0px" y="0px"
	 width="818px" height="730px" viewBox="0 0 818 730" enable-background="new 0 0 818 730" xml:space="preserve">
<path id="XMLID_64_" d="M336.834,319.895c16.806,8.811,32.387,16.966,47.955,25.147c7.064,3.712,14.207,7.29,21.126,11.256
	c12.993,7.447,20.043,18.494,20.024,33.796c-0.062,50.149-0.365,100.302,0.138,150.446c0.178,17.753-13.383,33.291-30.518,33.363
	c-17.043,0.072-31.168-14.966-31.227-33.527c-0.117-36.986-0.231-73.973,0.013-110.957c0.036-5.419-1.643-8.213-6.323-10.785
	c-32.341-17.778-64.521-35.85-96.735-53.859c-4.352-2.433-8.714-4.873-12.887-7.594c-26.501-17.28-30.204-49.074-8.096-71.806
	c18.933-19.467,38.223-38.587,57.403-57.812c17.062-17.102,34.124-34.205,51.323-51.169c6.563-6.473,13.913-11.971,23.048-14.349
	c17.353-4.518,38.174,4.192,48.816,20.647c18.699,28.914,37.27,57.912,55.735,86.976c2.105,3.313,4.315,4.613,8.302,4.586
	c27.489-0.187,54.981-0.115,82.471-0.088c7.986,0.008,15.058,2.432,20.689,8.323c7.1,7.428,7.349,17.54,0.494,25.197
	c-5.153,5.755-11.74,8.679-19.446,8.704c-33.486,0.108-66.972,0.202-100.458,0.14c-10.752-0.02-19.254-4.714-25.164-13.753
	c-10.649-16.288-21.211-32.632-31.817-48.949c-0.995-1.531-2.043-3.027-3.532-5.228C384.28,272.188,360.195,295.192,336.834,319.895
	z"/>
<path id="XMLID_61_" d="M185.86,390.706c72.476-0.213,141.614,57.76,141.844,142.032c0.216,78.963-63.396,142.427-141.896,142.4
	c-79.768-0.028-143.08-63.771-142.707-143.677C43.462,453.99,107.83,390.526,185.86,390.706z M69.602,532.831
	c-1.482,60.165,50.137,114.391,109.959,116.133c71.945,2.095,120.663-54.002,121.842-113.988
	c1.242-63.205-49.421-116.139-113.406-117.943C120.725,415.136,68.05,472.817,69.602,532.831z"/>
<path id="XMLID_58_" d="M604.378,392.484c81.637-1.456,143.411,67.304,143.247,141.936c-0.177,80.466-68.585,142.82-142.751,142.2
	c-73.681-0.616-142.608-60.515-141.844-144.275C463.766,451.687,532.135,391.173,604.378,392.484z M721.169,534.739
	c0.62-69.696-58.343-115.333-112.24-116.811c-59.441-1.63-118.685,45.558-119.718,115.745
	c-0.931,63.272,51.536,115.992,114.892,116.621C668.712,650.935,720.638,599.68,721.169,534.739z"/>
<path id="XMLID_57_" d="M409.867,132.296c-1.491-29.7,27.809-54.056,53.813-53.592c28.42,0.507,53.447,26.209,53.226,55.243
	c-0.161,21.134-20.566,52.592-54.848,51.708C433.431,184.917,409.661,161.021,409.867,132.296z"/>
</svg>
